# xmcd
#
# Track frame offsets:
#	150
#	30487
#	55011
#	77301
#	103395
#	129456
#	150433
#	177147
#	201248
#	222348
#	243113
#	265871
#	292032
#	312635
#
# Disc length: 4467 seconds
#
# Revision: 0
# Processed by: cddbd v1.4PL0 Copyright (c) Steve Scherf et al.
# Submitted via: dBpowerAMP V4.0
#
DISCID=bf11710e
DTITLE=Bruce Hornsby - Hot House
DYEAR=1900
DGENRE=
TTITLE0=Spider Finger
TTITLE1=White Wheeled Limousine
TTITLE2=Walk In The Sun
TTITLE3=The Changes
TTITLE4=The Tango King
TTITLE5=Big Rumble
TTITLE6=Country Doctor
TTITLE7=The Longest Night
TTITLE8=Hot House Ball
TTITLE9=Swing Street
TTITLE10=Cruise Control
TTITLE11=Every Little Kiss
TTITLE12=Harbor Lights
TTITLE13=That's Just The Way it is
EXTD=
EXTT0=
EXTT1=
EXTT2=
EXTT3=
EXTT4=
EXTT5=
EXTT6=
EXTT7=
EXTT8=
EXTT9=
EXTT10=
EXTT11=
EXTT12=
EXTT13=
PLAYORDER=
